HIERARCHY
ROOT joint_Root
{
	OFFSET 0.0 0.0 0.0
	CHANNELS 6 Xposition Yposition Zposition Zrotation Xrotation Yrotation 
	JOINT Hips
	{
		OFFSET -17.1583 93.1646 452.98
		CHANNELS 6 Xposition Yposition Zposition Zrotation Xrotation Yrotation 
		JOINT Spine
		{
			OFFSET 15.7357 0.0 0.0
			CHANNELS 6 Xposition Yposition Zposition Zrotation Xrotation Yrotation 
			JOINT Chest
			{
				OFFSET 8.98455 -0.406207 0.0
				CHANNELS 6 Xposition Yposition Zposition Zrotation Xrotation Yrotation 
				JOINT Neck
				{
					OFFSET 16.3773 0.0 0.0
					CHANNELS 6 Xposition Yposition Zposition Zrotation Xrotation Yrotation 
					JOINT Head
					{
						OFFSET 6.45672 0.0 0.0
						CHANNELS 6 Xposition Yposition Zposition Zrotation Xrotation Yrotation 
						End Site
						{
							OFFSET 0.0 0.0 0.0
						}
					}
				}
				JOINT Shoulder_L
				{
					OFFSET 12.9942 -0.242716 4.98039
					CHANNELS 6 Xposition Yposition Zposition Zrotation Xrotation Yrotation 
					JOINT UpperArm_L
					{
						OFFSET 5.34809 0.0 0.0
						CHANNELS 6 Xposition Yposition Zposition Zrotation Xrotation Yrotation 
						JOINT LowerArm_L
						{
							OFFSET 24.3286 1.87007e-05 0.0
							CHANNELS 6 Xposition Yposition Zposition Zrotation Xrotation Yrotation 
							JOINT Hand_L
							{
								OFFSET 22.2916 0.0 0.0
								CHANNELS 6 Xposition Yposition Zposition Zrotation Xrotation Yrotation 
								End Site
								{
									OFFSET 0.0 0.0 0.0
								}
							}
						}
					}
				}
				JOINT Shoulder_R
				{
					OFFSET 12.9945 -0.242716 -4.98039
					CHANNELS 6 Xposition Yposition Zposition Zrotation Xrotation Yrotation 
					JOINT UpperArm_R
					{
						OFFSET -5.34813 0.0 0.0
						CHANNELS 6 Xposition Yposition Zposition Zrotation Xrotation Yrotation 
						JOINT LowerArm_R
						{
							OFFSET -24.3289 0.000322201 0.0
							CHANNELS 6 Xposition Yposition Zposition Zrotation Xrotation Yrotation 
							JOINT Hand_R
							{
								OFFSET -22.2915 -0.000108084 0.0
								CHANNELS 6 Xposition Yposition Zposition Zrotation Xrotation Yrotation 
								End Site
								{
									OFFSET 0.0 0.0 0.0
								}
							}
						}
					}
				}
			}
		}
		JOINT UpperLeg_L
		{
			OFFSET -2.19248 -6.46944 0.0
			CHANNELS 6 Xposition Yposition Zposition Zrotation Xrotation Yrotation 
			JOINT LowerLeg_L
			{
				OFFSET 39.0811 0.0 -1.23785e-05
				CHANNELS 6 Xposition Yposition Zposition Zrotation Xrotation Yrotation 
				JOINT Foot_L
				{
					OFFSET 40.9854 0.0 -1.26872e-05
					CHANNELS 6 Xposition Yposition Zposition Zrotation Xrotation Yrotation 
					JOINT Toes_L
					{
						OFFSET 11.7543 0.0 0.0
						CHANNELS 6 Xposition Yposition Zposition Zrotation Xrotation Yrotation 
						End Site
						{
							OFFSET 0.0 0.0 0.0
						}
					}
				}
			}
		}
		JOINT UpperLeg_R
		{
			OFFSET -2.19251 6.46944 0.0
			CHANNELS 6 Xposition Yposition Zposition Zrotation Xrotation Yrotation 
			JOINT LowerLeg_R
			{
				OFFSET -39.0811 -0.00228153 -0.0401928
				CHANNELS 6 Xposition Yposition Zposition Zrotation Xrotation Yrotation 
				JOINT Foot_R
				{
					OFFSET -40.9854 0.0 0.0
					CHANNELS 6 Xposition Yposition Zposition Zrotation Xrotation Yrotation 
					JOINT Toes_R
					{
						OFFSET -11.7543 0.0 0.0
						CHANNELS 6 Xposition Yposition Zposition Zrotation Xrotation Yrotation 
						End Site
						{
							OFFSET 0.0 0.0 0.0
						}
					}
				}
			}
		}
	}
}
MOTION
Frames:	8
Frame Time:	0.0333333
0.000000 0.000000 0.000000 0.000000 0.000000 -0.000000 -0.501052 93.395400 -0.556054 88.328000 0.730543 -0.180145 15.735700 0.000005 -0.000001 81.837400 87.761900 -75.610000 8.984550 -0.406207 -0.000000 -3.237990 -1.231960 12.423300 16.377300 -0.000001 -0.000001 -4.377560 1.018630 6.422870 6.456720 -0.000001 -0.000000 3.071770 3.022050 22.275200 12.994200 -0.242716 4.980390 -88.594200 -2.833070 -63.595400 5.348090 -0.000007 -0.000001 -48.990000 -52.885200 -70.080200 24.328600 0.000019 0.000005 0.000816 -1.752400 0.000000 22.291600 -0.000001 0.000005 28.744900 3.476860 31.237300 12.994500 -0.242716 -4.980390 88.964200 3.394580 -73.020100 -5.348130 -0.000001 -0.000004 -65.312200 4.802070 -1.279830 -24.328900 0.000322 -0.000009 0.568478 2.089690 -15.249600 -22.291500 -0.000108 -0.000004 6.926080 5.226780 2.038710 -2.192480 -6.469440 -0.000000 -173.744000 -4.793860 -0.925422 39.081100 -0.000007 -0.000012 0.020961 -0.094403 12.519100 40.985400 -0.000006 -0.000013 -1.396210 12.652700 -67.559600 11.754300 -0.000000 0.000003 -0.000000 0.167630 -9.777810 -2.192510 6.469440 -0.000001 177.398000 6.494350 -179.084000 -39.081100 -0.002282 -0.040193 0.005176 -0.011177 9.328530 -40.985400 0.000008 0.000006 -6.583540 5.001730 -65.607200 -11.754300 -0.000006 -0.000006 -0.011158 0.279765 -5.204840
0.000000 0.000000 0.000000 0.000000 0.000000 -0.000000 -0.547933 93.397600 -0.531087 88.340500 0.817607 -0.187593 15.735700 0.000005 -0.000001 83.984600 87.832200 -77.910600 8.984550 -0.406207 -0.000000 -3.370250 -1.043180 12.120600 16.377300 -0.000001 -0.000001 -4.318220 1.196710 6.027810 6.456720 -0.000001 -0.000000 3.300960 3.043330 22.587600 12.994200 -0.242716 4.980390 -88.687400 -2.651130 -63.647500 5.348090 -0.000007 -0.000001 -53.561600 -54.650100 -73.687300 24.328600 0.000019 0.000005 0.000561 -11.570200 0.000001 22.291600 -0.000001 0.000005 30.815100 3.126630 35.567500 12.994500 -0.242716 -4.980390 88.977200 3.357390 -73.045700 -5.348130 -0.000001 -0.000004 -65.038500 4.066860 -0.030092 -24.328900 0.000322 -0.000009 0.682950 2.647190 -14.494800 -22.291500 -0.000108 -0.000004 6.856620 5.228060 2.005510 -2.192480 -6.469440 -0.000000 -173.727000 -4.683490 -0.878753 39.081100 -0.000007 -0.000012 0.020598 -0.093476 12.427500 40.985400 -0.000006 -0.000013 -1.435470 12.653400 -67.579900 11.754300 -0.000000 0.000003 -0.000072 0.168829 -9.729150 -2.192510 6.469440 -0.000001 177.417000 6.592790 -179.047000 -39.081100 -0.002282 -0.040193 0.005136 -0.010974 9.295560 -40.985400 0.000008 0.000006 -6.533790 4.990850 -65.611000 -11.754300 -0.000006 -0.000006 -0.011004 0.278662 -5.249980
0.000000 0.000000 0.000000 0.000000 0.000000 -0.000000 -0.611911 93.402400 -0.522887 88.334400 1.039580 -0.283938 15.735700 0.000005 -0.000001 84.338000 87.965400 -78.427800 8.984550 -0.406207 -0.000000 -3.638430 -0.988288 11.793300 16.377300 -0.000001 -0.000001 -4.052980 1.483130 5.393680 6.456720 -0.000001 -0.000000 3.781220 3.116960 22.771300 12.994200 -0.242716 4.980390 -88.688300 -2.627080 -63.454600 5.348090 -0.000007 -0.000001 -59.913800 -56.294800 -80.625400 24.328600 0.000019 0.000005 0.000706 -22.737400 0.000000 22.291600 -0.000001 0.000005 34.860900 3.090970 36.022900 12.994500 -0.242716 -4.980390 89.039500 3.160380 -73.086100 -5.348130 -0.000001 -0.000004 -64.935700 2.987510 1.012160 -24.328900 0.000322 -0.000009 0.812387 3.372360 -13.571300 -22.291500 -0.000108 -0.000004 6.952400 5.213790 2.371060 -2.192480 -6.469440 -0.000000 -173.671000 -4.603510 -0.969220 39.081100 -0.000007 -0.000012 0.019956 -0.091204 12.342400 40.985400 -0.000006 -0.000013 -1.484950 12.772500 -67.529600 11.754300 -0.000000 0.000003 -0.000016 0.167901 -9.766830 -2.192510 6.469440 -0.000001 177.470000 6.758010 -179.084000 -39.081100 -0.002282 -0.040193 0.005071 -0.010639 9.239280 -40.985400 0.000008 0.000006 -6.609070 4.967790 -65.591500 -11.754300 -0.000006 -0.000006 -0.010812 0.277274 -5.306780
0.000000 0.000000 0.000000 0.000000 0.000000 -0.000000 -0.702687 93.412200 -0.510332 88.320500 1.341590 -0.336970 15.735700 0.000005 -0.000001 84.187900 88.109500 -78.488300 8.984550 -0.406207 -0.000000 -3.931130 -0.963378 11.371400 16.377300 -0.000001 -0.000001 -3.690410 1.809310 4.752130 6.456720 -0.000001 -0.000000 4.349430 3.244770 23.034300 12.994200 -0.242716 4.980390 -88.598700 -2.781900 -63.250500 5.348090 -0.000007 -0.000001 -65.822400 -57.080500 -88.985500 24.328600 0.000019 0.000005 0.000226 -33.643500 -0.000000 22.291600 -0.000001 0.000005 39.434900 3.331990 33.082900 12.994500 -0.242716 -4.980390 89.081600 3.031290 -73.136400 -5.348130 -0.000001 -0.000004 -64.827500 1.977220 1.863030 -24.328900 0.000322 -0.000009 0.803017 3.636250 -12.477900 -22.291500 -0.000108 -0.000004 7.308850 5.206010 2.567850 -2.192480 -6.469440 -0.000000 -173.592000 -4.406880 -0.985878 39.081100 -0.000007 -0.000012 0.019918 -0.092197 12.191200 40.985400 -0.000006 -0.000013 -1.551360 12.902600 -67.494200 11.754300 -0.000000 0.000003 0.000065 0.166528 -9.822590 -2.192510 6.469440 -0.000001 177.537000 7.020380 -179.031000 -39.081100 -0.002282 -0.040193 0.004707 -0.008525 9.106760 -40.985400 0.000008 0.000006 -6.724260 4.909620 -65.538900 -11.754300 -0.000006 -0.000006 -0.011041 0.278928 -5.239070
0.000000 0.000000 0.000000 0.000000 0.000000 -0.000000 -0.795086 93.397600 -0.497885 88.259300 1.693900 -0.275752 15.735700 0.000005 -0.000001 83.695800 88.213000 -78.227500 8.984550 -0.406207 -0.000000 -4.144620 -0.959582 10.907900 16.377300 -0.000001 -0.000001 -3.362280 2.106560 4.166640 6.456720 -0.000001 -0.000000 4.988970 3.384580 23.444100 12.994200 -0.242716 4.980390 -88.432300 -3.079010 -62.999100 5.348090 -0.000007 -0.000001 -70.100200 -57.011300 -97.389900 24.328600 0.000019 0.000005 0.000061 -38.170700 -0.000001 22.291600 -0.000001 0.000005 41.932600 3.497220 30.986400 12.994500 -0.242716 -4.980390 89.135300 2.872300 -73.237400 -5.348130 -0.000001 -0.000004 -64.833700 1.044090 2.490010 -24.328900 0.000322 -0.000009 0.779502 3.860720 -11.438900 -22.291500 -0.000108 -0.000004 7.758130 5.197280 2.786970 -2.192480 -6.469440 -0.000000 -173.460000 -4.056710 -1.106450 39.081100 -0.000007 -0.000012 0.019719 -0.089624 12.408900 40.985400 -0.000006 -0.000013 -1.603540 12.901100 -67.525600 11.754300 -0.000000 0.000003 0.000011 0.167443 -9.785420 -2.192510 6.469440 -0.000001 177.651000 7.319540 -178.978000 -39.081100 -0.002282 -0.040193 0.004865 -0.009394 9.218410 -40.985400 0.000008 0.000006 -6.694600 4.897260 -65.582900 -11.754300 -0.000006 -0.000006 -0.010738 0.276739 -5.328690
0.000000 0.000000 0.000000 0.000000 0.000000 -0.000000 -0.873351 93.400900 -0.486585 88.221100 1.992740 -0.100962 15.735700 0.000005 -0.000001 83.457000 88.263400 -78.228000 8.984550 -0.406207 -0.000000 -4.251200 -0.942961 10.429100 16.377300 -0.000001 -0.000001 -3.013570 2.396730 3.614950 6.456720 -0.000001 -0.000000 5.537690 3.501800 23.941700 12.994200 -0.242716 4.980390 -88.247400 -3.394920 -62.674600 5.348090 -0.000007 -0.000001 -71.400400 -56.632400 -103.935000 24.328600 0.000019 0.000005 0.000534 -35.674100 -0.000000 22.291600 -0.000001 0.000005 42.018000 3.576370 29.960200 12.994500 -0.242716 -4.980390 89.189200 2.710250 -73.337800 -5.348130 -0.000001 -0.000004 -64.875600 0.493308 2.880860 -24.328900 0.000322 -0.000009 0.743374 3.930650 -10.733100 -22.291500 -0.000108 -0.000004 8.136790 5.187910 3.020730 -2.192480 -6.469440 -0.000000 -173.371000 -3.567960 -0.955802 39.081100 -0.000007 -0.000012 0.020409 -0.093112 12.363300 40.985400 -0.000006 -0.000013 -1.682750 12.748600 -67.502500 11.754300 -0.000000 0.000003 0.000065 0.166526 -9.822670 -2.192510 6.469440 -0.000001 177.671000 7.673810 -178.704000 -39.081100 -0.002282 -0.040193 0.003713 -0.002327 9.110600 -40.985400 0.000008 0.000006 -6.920010 5.017170 -65.475400 -11.754300 -0.000006 -0.000006 -0.010794 0.277145 -5.312040
0.000000 0.000000 0.000000 0.000000 0.000000 -0.000000 -0.932736 93.400700 -0.509713 88.142700 2.206490 -0.022682 15.735700 0.000005 -0.000001 83.418200 88.323500 -78.394300 8.984550 -0.406207 -0.000000 -4.375270 -0.915527 10.019100 16.377300 -0.000001 -0.000001 -2.557310 2.710730 3.164130 6.456720 -0.000001 -0.000000 5.779900 3.532470 24.406400 12.994200 -0.242716 4.980390 -88.087000 -3.656040 -62.354600 5.348090 -0.000007 -0.000001 -69.949100 -56.582600 -108.179000 24.328600 0.000019 0.000005 0.001690 -31.326100 -0.000000 22.291600 -0.000001 0.000005 40.195700 3.768280 27.419100 12.994500 -0.242716 -4.980390 89.221500 2.612590 -73.400300 -5.348130 -0.000001 -0.000004 -64.898600 0.292799 2.963650 -24.328900 0.000322 -0.000009 0.722906 3.970300 -10.342500 -22.291500 -0.000108 -0.000004 8.378730 5.185920 3.069710 -2.192480 -6.469440 -0.000000 -173.270000 -3.142340 -1.007390 39.081100 -0.000007 -0.000012 0.022390 -0.101058 12.492900 40.985400 -0.000006 -0.000013 -1.735780 12.565500 -67.553100 11.754300 -0.000000 0.000003 0.000003 0.167580 -9.779870 -2.192510 6.469440 -0.000001 177.740000 8.010620 -178.582000 -39.081100 -0.002282 -0.040193 0.003005 0.002108 9.042890 -40.985400 0.000008 0.000006 -7.085880 5.184130 -65.373600 -11.754300 -0.000006 -0.000006 -0.010881 0.277773 -5.286370
0.000000 0.000000 0.000000 0.000000 0.000000 -0.000000 -0.951463 93.410600 -0.554205 88.081600 2.327030 -0.058784 15.735700 0.000005 -0.000001 83.665500 88.407700 -78.812200 8.984550 -0.406207 -0.000000 -4.545640 -0.871753 9.678590 16.377300 -0.000001 -0.000001 -2.184390 2.980690 2.882180 6.456720 -0.000001 -0.000000 5.996440 3.601830 24.837900 12.994200 -0.242716 4.980390 -87.959100 -3.878930 -62.220700 5.348090 -0.000007 -0.000001 -68.541600 -56.811400 -111.640000 24.328600 0.000019 0.000005 -0.540978 -24.531100 -1.313560 22.291600 -0.000001 0.000005 38.372900 3.987640 24.396100 12.994500 -0.242716 -4.980390 89.216400 2.645510 -73.493500 -5.348130 -0.000001 -0.000004 -64.813300 0.286993 2.886350 -24.328900 0.000322 -0.000009 0.727454 3.956900 -10.440600 -22.291500 -0.000108 -0.000004 8.510940 5.187180 3.038810 -2.192480 -6.469440 -0.000000 -173.235000 -2.701470 -1.117520 39.081100 -0.000007 -0.000012 0.024338 -0.109623 12.517800 40.985400 -0.000006 -0.000013 -1.787140 12.226100 -67.536000 11.754300 -0.000000 0.000003 -0.000032 0.168169 -9.755940 -2.192510 6.469440 -0.000001 177.781000 8.299890 -178.549000 -39.081100 -0.002282 -0.040193 0.002353 0.006334 8.866130 -40.985400 0.000008 0.000006 -7.299740 5.364820 -65.187200 -11.754300 -0.000006 -0.000006 -0.010877 0.277745 -5.287510
